<svg width="10" height="10" viewBox="0 0 10 10" fill="none" xmlns="http://www.w3.org/2000/svg">
<path d="M4.74419 9.80005C4.67885 8.18538 4.64152 6.72005 4.63219 5.40405C3.60552 6.39338 2.56952 7.37338 1.52419 8.34405L1.39819 8.20405C2.59285 6.89738 3.56819 5.86605 4.32419 5.11005C2.85885 5.10072 1.41685 5.06338 -0.00181248 4.99805V4.80205C1.41685 4.73672 2.85885 4.69938 4.32419 4.69005C3.56819 3.93405 2.59285 2.90272 1.39819 1.59605L1.52419 1.45605C2.56952 2.42672 3.60552 3.40672 4.63219 4.39605C4.64152 3.08005 4.67885 1.61472 4.74419 4.81606e-05H4.94019C5.00552 1.61472 5.04285 3.08005 5.05219 4.39605C6.07885 3.40672 7.11485 2.42672 8.16019 1.45605L8.28619 1.59605C7.09152 2.90272 6.11619 3.93405 5.36019 4.69005C6.82552 4.69938 8.26752 4.73672 9.68619 4.80205V4.99805C8.26752 5.06338 6.82552 5.10072 5.36019 5.11005C6.11619 5.86605 7.09152 6.89738 8.28619 8.20405L8.16019 8.34405C7.11485 7.37338 6.07885 6.39338 5.05219 5.40405C5.04285 6.72005 5.00552 8.18538 4.94019 9.80005H4.74419Z" fill="black"/>
</svg>
