<svg width="945" height="25" viewBox="0 0 945 25" fill="none" xmlns="http://www.w3.org/2000/svg">
<line x1="460.5" y1="12.5" x2="0.5" y2="12.5" stroke="#CCCCCC" stroke-linecap="round"/>
<path d="M425 12.5C425 12.7761 424.776 13 424.5 13L413 13L413 24.5C413 24.7761 412.776 25 412.5 25C412.224 25 412 24.7761 412 24.5L412 13L400.5 13C400.224 13 400 12.7761 400 12.5C400 12.2239 400.224 12 400.5 12L412 12L412 0.499999C412 0.223858 412.224 1.11397e-06 412.5 -5.46392e-07C412.776 -5.10181e-07 413 0.223857 413 0.499999L413 12L424.5 12C424.776 12 425 12.2239 425 12.5Z" fill="#CCCCCC"/>
<path d="M584 12.5C584 12.7761 583.776 13 583.5 13L572 13L572 24.5C572 24.7761 571.776 25 571.5 25C571.224 25 571 24.7761 571 24.5L571 13L559.5 13C559.224 13 559 12.7761 559 12.5C559 12.2239 559.224 12 559.5 12L571 12L571 0.499999C571 0.223858 571.224 1.11397e-06 571.5 -5.46391e-07C571.776 -5.10179e-07 572 0.223857 572 0.499999L572 12L583.5 12C583.776 12 584 12.2239 584 12.5Z" fill="#CCCCCC"/>
<line x1="944.5" y1="12.5" x2="524.5" y2="12.5" stroke="#CCCCCC" stroke-linecap="round"/>
</svg>
