<svg width="1280" height="432" viewBox="0 0 1280 432" fill="none" xmlns="http://www.w3.org/2000/svg">
<g clip-path="url(#clip0_426_1475)">
<rect x="-149.5" width="380" height="108" rx="24" fill="url(#paint0_linear_426_1475)"/>
<rect x="249.5" width="380" height="108" rx="24" fill="url(#paint1_linear_426_1475)"/>
<rect x="648.5" width="380" height="108" rx="24" fill="url(#paint2_linear_426_1475)"/>
<rect x="1047.5" width="380" height="108" rx="24" fill="url(#paint3_linear_426_1475)"/>
<rect x="-349" y="108" width="380" height="108" rx="24" fill="url(#paint4_linear_426_1475)"/>
<rect x="50" y="108" width="380" height="108" rx="24" fill="url(#paint5_linear_426_1475)"/>
<rect x="449" y="108" width="380" height="108" rx="24" fill="url(#paint6_linear_426_1475)"/>
<rect x="848" y="108" width="380" height="108" rx="24" fill="url(#paint7_linear_426_1475)"/>
<rect x="1247" y="108" width="380" height="108" rx="24" fill="url(#paint8_linear_426_1475)"/>
<rect x="-149.5" y="216" width="380" height="108" rx="24" fill="url(#paint9_linear_426_1475)"/>
<rect x="249.5" y="216" width="380" height="108" rx="24" fill="url(#paint10_linear_426_1475)"/>
<rect x="648.5" y="216" width="380" height="108" rx="24" fill="url(#paint11_linear_426_1475)"/>
<rect x="1047.5" y="216" width="380" height="108" rx="24" fill="url(#paint12_linear_426_1475)"/>
<rect x="-349" y="324" width="380" height="108" rx="24" fill="url(#paint13_linear_426_1475)"/>
<rect x="50" y="324" width="380" height="108" rx="24" fill="url(#paint14_linear_426_1475)"/>
<rect x="449" y="324" width="380" height="108" rx="24" fill="url(#paint15_linear_426_1475)"/>
<rect x="848" y="324" width="380" height="108" rx="24" fill="url(#paint16_linear_426_1475)"/>
<rect x="1247" y="324" width="380" height="108" rx="24" fill="url(#paint17_linear_426_1475)"/>
</g>
<defs>
<linearGradient id="paint0_linear_426_1475" x1="40.5" y1="0" x2="40.5" y2="207.173" gradientUnits="userSpaceOnUse">
<stop stop-color="#E4E4E4"/>
<stop offset="0.480769" stop-color="white"/>
<stop offset="1" stop-color="#D9D9D9"/>
</linearGradient>
<linearGradient id="paint1_linear_426_1475" x1="439.5" y1="0" x2="439.5" y2="207.173" gradientUnits="userSpaceOnUse">
<stop stop-color="#E4E4E4"/>
<stop offset="0.480769" stop-color="white"/>
<stop offset="1" stop-color="#D9D9D9"/>
</linearGradient>
<linearGradient id="paint2_linear_426_1475" x1="838.5" y1="0" x2="838.5" y2="207.173" gradientUnits="userSpaceOnUse">
<stop stop-color="#E4E4E4"/>
<stop offset="0.480769" stop-color="white"/>
<stop offset="1" stop-color="#D9D9D9"/>
</linearGradient>
<linearGradient id="paint3_linear_426_1475" x1="1237.5" y1="0" x2="1237.5" y2="207.173" gradientUnits="userSpaceOnUse">
<stop stop-color="#E4E4E4"/>
<stop offset="0.480769" stop-color="white"/>
<stop offset="1" stop-color="#D9D9D9"/>
</linearGradient>
<linearGradient id="paint4_linear_426_1475" x1="-159" y1="108" x2="-159" y2="315.173" gradientUnits="userSpaceOnUse">
<stop stop-color="#E4E4E4"/>
<stop offset="0.480769" stop-color="white"/>
<stop offset="1" stop-color="#D9D9D9"/>
</linearGradient>
<linearGradient id="paint5_linear_426_1475" x1="240" y1="108" x2="240" y2="315.173" gradientUnits="userSpaceOnUse">
<stop stop-color="#E4E4E4"/>
<stop offset="0.480769" stop-color="white"/>
<stop offset="1" stop-color="#D9D9D9"/>
</linearGradient>
<linearGradient id="paint6_linear_426_1475" x1="639" y1="108" x2="639" y2="315.173" gradientUnits="userSpaceOnUse">
<stop stop-color="#E4E4E4"/>
<stop offset="0.480769" stop-color="white"/>
<stop offset="1" stop-color="#D9D9D9"/>
</linearGradient>
<linearGradient id="paint7_linear_426_1475" x1="1038" y1="108" x2="1038" y2="315.173" gradientUnits="userSpaceOnUse">
<stop stop-color="#E4E4E4"/>
<stop offset="0.480769" stop-color="white"/>
<stop offset="1" stop-color="#D9D9D9"/>
</linearGradient>
<linearGradient id="paint8_linear_426_1475" x1="1437" y1="108" x2="1437" y2="315.173" gradientUnits="userSpaceOnUse">
<stop stop-color="#E4E4E4"/>
<stop offset="0.480769" stop-color="white"/>
<stop offset="1" stop-color="#D9D9D9"/>
</linearGradient>
<linearGradient id="paint9_linear_426_1475" x1="40.5" y1="216" x2="40.5" y2="423.173" gradientUnits="userSpaceOnUse">
<stop stop-color="#E4E4E4"/>
<stop offset="0.480769" stop-color="white"/>
<stop offset="1" stop-color="#D9D9D9"/>
</linearGradient>
<linearGradient id="paint10_linear_426_1475" x1="439.5" y1="216" x2="439.5" y2="423.173" gradientUnits="userSpaceOnUse">
<stop stop-color="#E4E4E4"/>
<stop offset="0.480769" stop-color="white"/>
<stop offset="1" stop-color="#D9D9D9"/>
</linearGradient>
<linearGradient id="paint11_linear_426_1475" x1="838.5" y1="216" x2="838.5" y2="423.173" gradientUnits="userSpaceOnUse">
<stop stop-color="#E4E4E4"/>
<stop offset="0.480769" stop-color="white"/>
<stop offset="1" stop-color="#D9D9D9"/>
</linearGradient>
<linearGradient id="paint12_linear_426_1475" x1="1237.5" y1="216" x2="1237.5" y2="423.173" gradientUnits="userSpaceOnUse">
<stop stop-color="#E4E4E4"/>
<stop offset="0.480769" stop-color="white"/>
<stop offset="1" stop-color="#D9D9D9"/>
</linearGradient>
<linearGradient id="paint13_linear_426_1475" x1="-159" y1="324" x2="-159" y2="531.173" gradientUnits="userSpaceOnUse">
<stop stop-color="#E4E4E4"/>
<stop offset="0.480769" stop-color="white"/>
<stop offset="1" stop-color="#D9D9D9"/>
</linearGradient>
<linearGradient id="paint14_linear_426_1475" x1="240" y1="324" x2="240" y2="531.173" gradientUnits="userSpaceOnUse">
<stop stop-color="#E4E4E4"/>
<stop offset="0.480769" stop-color="white"/>
<stop offset="1" stop-color="#D9D9D9"/>
</linearGradient>
<linearGradient id="paint15_linear_426_1475" x1="639" y1="324" x2="639" y2="531.173" gradientUnits="userSpaceOnUse">
<stop stop-color="#E4E4E4"/>
<stop offset="0.480769" stop-color="white"/>
<stop offset="1" stop-color="#D9D9D9"/>
</linearGradient>
<linearGradient id="paint16_linear_426_1475" x1="1038" y1="324" x2="1038" y2="531.173" gradientUnits="userSpaceOnUse">
<stop stop-color="#E4E4E4"/>
<stop offset="0.480769" stop-color="white"/>
<stop offset="1" stop-color="#D9D9D9"/>
</linearGradient>
<linearGradient id="paint17_linear_426_1475" x1="1437" y1="324" x2="1437" y2="531.173" gradientUnits="userSpaceOnUse">
<stop stop-color="#E4E4E4"/>
<stop offset="0.480769" stop-color="white"/>
<stop offset="1" stop-color="#D9D9D9"/>
</linearGradient>
<clipPath id="clip0_426_1475">
<rect width="1280" height="432" fill="white"/>
</clipPath>
</defs>
</svg>
