<svg width="1976" height="432" viewBox="0 0 1976 432" fill="none" xmlns="http://www.w3.org/2000/svg">
<rect x="199.5" width="380" height="108" rx="24" fill="url(#paint0_linear_426_1475)"/>
<rect x="598.5" width="380" height="108" rx="24" fill="url(#paint1_linear_426_1475)"/>
<rect x="997.5" width="380" height="108" rx="24" fill="url(#paint2_linear_426_1475)"/>
<rect x="1396.5" width="380" height="108" rx="24" fill="url(#paint3_linear_426_1475)"/>
<rect y="108" width="380" height="108" rx="24" fill="url(#paint4_linear_426_1475)"/>
<rect x="399" y="108" width="380" height="108" rx="24" fill="url(#paint5_linear_426_1475)"/>
<rect x="798" y="108" width="380" height="108" rx="24" fill="url(#paint6_linear_426_1475)"/>
<rect x="1197" y="108" width="380" height="108" rx="24" fill="url(#paint7_linear_426_1475)"/>
<rect x="1596" y="108" width="380" height="108" rx="24" fill="url(#paint8_linear_426_1475)"/>
<rect x="199.5" y="216" width="380" height="108" rx="24" fill="url(#paint9_linear_426_1475)"/>
<rect x="598.5" y="216" width="380" height="108" rx="24" fill="url(#paint10_linear_426_1475)"/>
<rect x="997.5" y="216" width="380" height="108" rx="24" fill="url(#paint11_linear_426_1475)"/>
<rect x="1396.5" y="216" width="380" height="108" rx="24" fill="url(#paint12_linear_426_1475)"/>
<rect y="324" width="380" height="108" rx="24" fill="url(#paint13_linear_426_1475)"/>
<rect x="399" y="324" width="380" height="108" rx="24" fill="url(#paint14_linear_426_1475)"/>
<rect x="798" y="324" width="380" height="108" rx="24" fill="url(#paint15_linear_426_1475)"/>
<rect x="1197" y="324" width="380" height="108" rx="24" fill="url(#paint16_linear_426_1475)"/>
<rect x="1596" y="324" width="380" height="108" rx="24" fill="url(#paint17_linear_426_1475)"/>
<defs>
<linearGradient id="paint0_linear_426_1475" x1="389.5" y1="0" x2="389.5" y2="207.173" gradientUnits="userSpaceOnUse">
<stop stop-color="#E4E4E4"/>
<stop offset="0.480769" stop-color="white"/>
<stop offset="1" stop-color="#D9D9D9"/>
</linearGradient>
<linearGradient id="paint1_linear_426_1475" x1="788.5" y1="0" x2="788.5" y2="207.173" gradientUnits="userSpaceOnUse">
<stop stop-color="#E4E4E4"/>
<stop offset="0.480769" stop-color="white"/>
<stop offset="1" stop-color="#D9D9D9"/>
</linearGradient>
<linearGradient id="paint2_linear_426_1475" x1="1187.5" y1="0" x2="1187.5" y2="207.173" gradientUnits="userSpaceOnUse">
<stop stop-color="#E4E4E4"/>
<stop offset="0.480769" stop-color="white"/>
<stop offset="1" stop-color="#D9D9D9"/>
</linearGradient>
<linearGradient id="paint3_linear_426_1475" x1="1586.5" y1="0" x2="1586.5" y2="207.173" gradientUnits="userSpaceOnUse">
<stop stop-color="#E4E4E4"/>
<stop offset="0.480769" stop-color="white"/>
<stop offset="1" stop-color="#D9D9D9"/>
</linearGradient>
<linearGradient id="paint4_linear_426_1475" x1="190" y1="108" x2="190" y2="315.173" gradientUnits="userSpaceOnUse">
<stop stop-color="#E4E4E4"/>
<stop offset="0.480769" stop-color="white"/>
<stop offset="1" stop-color="#D9D9D9"/>
</linearGradient>
<linearGradient id="paint5_linear_426_1475" x1="589" y1="108" x2="589" y2="315.173" gradientUnits="userSpaceOnUse">
<stop stop-color="#E4E4E4"/>
<stop offset="0.480769" stop-color="white"/>
<stop offset="1" stop-color="#D9D9D9"/>
</linearGradient>
<linearGradient id="paint6_linear_426_1475" x1="988" y1="108" x2="988" y2="315.173" gradientUnits="userSpaceOnUse">
<stop stop-color="#E4E4E4"/>
<stop offset="0.480769" stop-color="white"/>
<stop offset="1" stop-color="#D9D9D9"/>
</linearGradient>
<linearGradient id="paint7_linear_426_1475" x1="1387" y1="108" x2="1387" y2="315.173" gradientUnits="userSpaceOnUse">
<stop stop-color="#E4E4E4"/>
<stop offset="0.480769" stop-color="white"/>
<stop offset="1" stop-color="#D9D9D9"/>
</linearGradient>
<linearGradient id="paint8_linear_426_1475" x1="1786" y1="108" x2="1786" y2="315.173" gradientUnits="userSpaceOnUse">
<stop stop-color="#E4E4E4"/>
<stop offset="0.480769" stop-color="white"/>
<stop offset="1" stop-color="#D9D9D9"/>
</linearGradient>
<linearGradient id="paint9_linear_426_1475" x1="389.5" y1="216" x2="389.5" y2="423.173" gradientUnits="userSpaceOnUse">
<stop stop-color="#E4E4E4"/>
<stop offset="0.480769" stop-color="white"/>
<stop offset="1" stop-color="#D9D9D9"/>
</linearGradient>
<linearGradient id="paint10_linear_426_1475" x1="788.5" y1="216" x2="788.5" y2="423.173" gradientUnits="userSpaceOnUse">
<stop stop-color="#E4E4E4"/>
<stop offset="0.480769" stop-color="white"/>
<stop offset="1" stop-color="#D9D9D9"/>
</linearGradient>
<linearGradient id="paint11_linear_426_1475" x1="1187.5" y1="216" x2="1187.5" y2="423.173" gradientUnits="userSpaceOnUse">
<stop stop-color="#E4E4E4"/>
<stop offset="0.480769" stop-color="white"/>
<stop offset="1" stop-color="#D9D9D9"/>
</linearGradient>
<linearGradient id="paint12_linear_426_1475" x1="1586.5" y1="216" x2="1586.5" y2="423.173" gradientUnits="userSpaceOnUse">
<stop stop-color="#E4E4E4"/>
<stop offset="0.480769" stop-color="white"/>
<stop offset="1" stop-color="#D9D9D9"/>
</linearGradient>
<linearGradient id="paint13_linear_426_1475" x1="190" y1="324" x2="190" y2="531.173" gradientUnits="userSpaceOnUse">
<stop stop-color="#E4E4E4"/>
<stop offset="0.480769" stop-color="white"/>
<stop offset="1" stop-color="#D9D9D9"/>
</linearGradient>
<linearGradient id="paint14_linear_426_1475" x1="589" y1="324" x2="589" y2="531.173" gradientUnits="userSpaceOnUse">
<stop stop-color="#E4E4E4"/>
<stop offset="0.480769" stop-color="white"/>
<stop offset="1" stop-color="#D9D9D9"/>
</linearGradient>
<linearGradient id="paint15_linear_426_1475" x1="988" y1="324" x2="988" y2="531.173" gradientUnits="userSpaceOnUse">
<stop stop-color="#E4E4E4"/>
<stop offset="0.480769" stop-color="white"/>
<stop offset="1" stop-color="#D9D9D9"/>
</linearGradient>
<linearGradient id="paint16_linear_426_1475" x1="1387" y1="324" x2="1387" y2="531.173" gradientUnits="userSpaceOnUse">
<stop stop-color="#E4E4E4"/>
<stop offset="0.480769" stop-color="white"/>
<stop offset="1" stop-color="#D9D9D9"/>
</linearGradient>
<linearGradient id="paint17_linear_426_1475" x1="1786" y1="324" x2="1786" y2="531.173" gradientUnits="userSpaceOnUse">
<stop stop-color="#E4E4E4"/>
<stop offset="0.480769" stop-color="white"/>
<stop offset="1" stop-color="#D9D9D9"/>
</linearGradient>
</defs>
</svg>
