<svg width="25" height="25" viewBox="0 0 25 25" fill="none" xmlns="http://www.w3.org/2000/svg">
<path d="M25 12.5C25 12.7761 24.7761 13 24.5 13L13 13L13 24.5C13 24.7761 12.7761 25 12.5 25C12.2239 25 12 24.7761 12 24.5L12 13L0.499999 13C0.223857 13 -5.58463e-07 12.7761 -5.46392e-07 12.5C-5.34322e-07 12.2239 0.223857 12 0.499999 12L12 12L12 0.499999C12 0.223858 12.2239 1.11397e-06 12.5 -5.46392e-07C12.7761 -5.10181e-07 13 0.223857 13 0.499999L13 12L24.5 12C24.7761 12 25 12.2239 25 12.5Z" fill="#CCCCCC"/>
</svg>
